<svg width="200" height="221" viewBox="0 0 200 221" fill="none" xmlns="http://www.w3.org/2000/svg">
<path d="M143.994 148.148L81.5818 106.55V72.2749C81.5818 70.5299 80.1797 69.1278 78.4347 69.1278C76.6898 69.1278 75.2877 70.5299 75.2877 72.2749V150.672C75.2877 152.417 76.6898 153.819 78.4347 153.819C80.1797 153.819 81.5818 152.417 81.5818 150.672V114.122L140.504 153.414C141.937 154.348 143.869 153.975 144.804 152.541L144.866 152.479C145.801 151.046 145.427 149.114 143.994 148.179V148.148Z" fill="white"/>
<path d="M143.621 75.053C145.068 74.0889 145.458 72.1349 144.494 70.6888C143.53 69.2426 141.576 68.8518 140.13 69.8159L104.819 93.3568C103.372 94.3209 102.982 96.2748 103.946 97.721C104.91 99.1672 106.864 99.558 108.31 98.5939L143.621 75.053Z" fill="white"/>
<path d="M197.35 171.104C196.515 171.104 195.708 171.521 195.207 172.189C174.468 200.583 141.147 216.701 106.1 215.309C51.762 213.138 7.50088 168.877 5.41309 114.511C4.29961 85.6994 14.7107 58.3633 34.6978 37.5689C54.7127 16.7467 81.5756 5.3056 110.359 5.3056C143.736 5.3056 175.443 21.4512 195.207 48.5089C195.708 49.177 196.515 49.5945 197.35 49.5945C198.353 49.5945 199.271 49.0378 199.717 48.147C200.162 47.2562 200.078 46.1706 199.494 45.3633C178.004 15.9672 143.513 -0.9856 107.241 0.0443753C78.7919 0.823816 52.0404 12.5154 31.9141 32.9201C11.76 53.3526 0.430238 80.2711 0.0126799 108.693C-0.432715 138.451 10.8692 166.511 31.7749 187.75C52.7085 208.99 80.6013 220.682 110.331 220.682C145.378 220.682 178.7 203.729 199.466 175.335C200.078 174.528 200.162 173.442 199.689 172.551C199.243 171.661 198.325 171.104 197.323 171.104H197.35Z" fill="url(#paint0_radial_941_6998)"/>
<defs>
<radialGradient id="paint0_radial_941_6998" cx="0" cy="0" r="1" gradientUnits="userSpaceOnUse" gradientTransform="translate(215.751 55.6635) rotate(108.838) scale(125.004 302.688)">
<stop offset="0.139194" stop-color="white" stop-opacity="0"/>
<stop offset="0.620501" stop-color="white" stop-opacity="0.536145"/>
<stop offset="1" stop-color="white"/>
</radialGradient>
</defs>
</svg>
