<?xml version="1.0" encoding="UTF-8"?><svg id="Calque_1" xmlns="http://www.w3.org/2000/svg" viewBox="0 0 1073.81 1073.81"><defs><style>.cls-1{fill:#fff;}</style></defs><path class="cls-1" d="M862.41,374.16c-24.42,0-28.49,1.35-35.27-5.43-6.78-6.78-5.42-10.85-5.42-35.26,0-20.35-20.35-40.69-40.69-40.69-24.41,0-28.48,1.36-35.26-5.42-6.78-6.79-5.43-10.85-5.43-35.27,0-20.34-20.34-40.69-40.68-40.69s-40.69,20.35-40.69,40.69c0,24.42,1.35,28.48-5.43,35.27-6.78,6.78-10.85,5.42-35.26,5.42-20.34,0-40.69,20.34-40.69,40.69,0,24.41,1.36,28.48-5.42,35.26-6.78,6.78-10.85,5.43-35.26,5.43s-28.49,1.35-35.27-5.43c-6.78-6.78-5.42-10.85-5.42-35.26,0-20.35-20.35-40.69-40.69-40.69-24.41,0-28.48,1.36-35.26-5.42-6.78-6.79-5.43-10.85-5.43-35.27,0-20.34-20.34-40.69-40.68-40.69s-40.69,20.35-40.69,40.69c0,24.42,1.35,28.48-5.43,35.27-6.78,6.78-10.85,5.42-35.26,5.42-20.34,0-40.69,20.34-40.69,40.69,0,24.41,1.36,28.48-5.42,35.26-6.78,6.78-10.85,5.43-35.27,5.43-20.34,0-40.68,20.34-40.68,40.68v81.38c0,20.34,20.34,40.69,40.68,40.69,24.42,0,28.49-1.36,35.27,5.42,6.78,6.78,5.42,10.85,5.42,35.26,0,20.35,20.35,40.69,40.69,40.69,24.41,0,28.48-1.36,35.26,5.43,6.78,6.78,5.43,10.85,5.43,35.26,0,20.34,20.34,40.69,40.69,40.69,24.41,0,28.48-1.36,35.26,5.42,6.78,6.78,5.42,10.85,5.42,35.26,0,20.35,20.35,40.69,40.69,40.69,24.41,0,28.48-1.36,35.26,5.43,6.78,6.78,5.43,10.85,5.43,35.26,0,20.34,20.34,40.69,40.69,40.69s40.68-20.35,40.68-40.69c0-24.41-1.35-28.48,5.43-35.26,6.78-6.79,10.85-5.43,35.26-5.43,20.34,0,40.69-20.34,40.69-40.69,0-24.41-1.36-28.48,5.42-35.26,6.78-6.78,10.85-5.42,35.27-5.42,20.34,0,40.68-20.35,40.68-40.69,0-24.41-1.35-28.48,5.43-35.26,6.78-6.79,10.85-5.43,35.26-5.43,20.34,0,40.69-20.34,40.69-40.69,0-24.41-1.36-28.48,5.42-35.26,6.78-6.78,10.85-5.42,35.27-5.42,20.34,0,40.68-20.35,40.68-40.69v-81.38c0-20.34-20.34-40.68-40.68-40.68ZM816.29,531.48c-6.78,6.78-10.85,5.43-35.26,5.43-20.34,0-40.69,20.34-40.69,40.68,0,24.42,1.36,28.48-5.42,35.27-6.78,6.78-10.85,5.42-35.26,5.42-20.35,0-40.69,20.34-40.69,40.69,0,24.41,1.35,28.48-5.43,35.26-6.78,6.78-10.85,5.43-35.26,5.43-20.34,0-40.69,20.34-40.69,40.68,0,24.42,1.36,28.48-5.42,35.27-6.78,6.78-10.85,5.42-35.26,5.42s-28.49,1.36-35.27-5.42c-6.78-6.79-5.42-10.85-5.42-35.27,0-20.34-20.35-40.68-40.69-40.68-24.41,0-28.48,1.35-35.26-5.43-6.78-6.78-5.43-10.85-5.43-35.26,0-20.35-20.34-40.69-40.68-40.69-24.42,0-28.49,1.36-35.27-5.42-6.78-6.79-5.42-10.85-5.42-35.27,0-20.34-20.35-40.68-40.69-40.68-24.41,0-28.48,1.35-35.26-5.43-6.78-6.78-5.43-10.85-5.43-35.26v-81.38c0-24.41-1.35-28.48,5.43-35.26,6.78-6.78,10.85-5.42,35.26-5.42,20.34,0,40.69-20.35,40.69-40.69,0-24.41-1.36-28.48,5.42-35.26,6.78-6.79,10.85-5.43,35.27-5.43s28.48-1.36,35.26,5.43c6.78,6.78,5.42,10.85,5.42,35.26,0,20.34,20.35,40.69,40.69,40.69,24.41,0,28.48-1.36,35.26,5.42,6.78,6.78,5.43,10.85,5.43,35.26v81.38c0,24.41,1.35,28.48-5.43,35.26-8.13,6.78-10.85,5.43-35.26,5.43s-28.48,1.35-35.26-5.43c-6.78-6.78-5.43-10.85-5.43-35.26v-81.38c0-20.34-20.34-40.68-40.68-40.68s-40.69,20.34-40.69,40.68v81.38c0,20.34,20.34,40.69,40.69,40.69,24.41,0,28.48-1.36,35.26,5.42,6.78,6.78,5.42,10.85,5.42,35.26,0,20.35,20.35,40.69,40.69,40.69,24.41,0,28.48-1.36,35.26,5.43,6.78,6.78,5.43,10.85,5.43,35.26,0,20.34,20.34,40.69,40.69,40.69s40.68-20.35,40.68-40.69c0-24.41-1.35-28.48,5.43-35.26,6.78-6.79,10.85-5.43,35.26-5.43,20.34,0,40.69-20.34,40.69-40.69,0-24.41-1.36-28.48,5.42-35.26,6.78-6.78,10.85-5.42,35.27-5.42,20.34,0,40.68-20.35,40.68-40.69v-81.38c0-20.34-20.34-40.68-40.68-40.68s-40.69,20.34-40.69,40.68v81.38c0,24.41,1.35,28.48-5.43,35.26-6.78,6.78-10.85,5.43-35.26,5.43s-27.12,1.35-35.26-5.43c-6.78-6.78-5.43-10.85-5.43-35.26v-81.38c0-24.41-1.35-28.48,5.43-35.26,6.78-6.78,10.85-5.42,35.26-5.42,20.34,0,40.69-20.35,40.69-40.69,0-24.41-1.36-28.48,5.42-35.26,6.78-6.79,10.85-5.43,35.27-5.43s28.48-1.36,35.26,5.43c6.78,6.78,5.42,10.85,5.42,35.26,0,20.34,20.35,40.69,40.69,40.69,24.41,0,28.48-1.36,35.26,5.42,6.78,6.78,5.43,10.85,5.43,35.26v81.38c0,24.41,1.35,28.48-5.43,35.26Z"/></svg>