<svg width="93" height="93" viewBox="0 0 93 93" fill="none" xmlns="http://www.w3.org/2000/svg">
<path d="M46.3662 0.838867H46.3682C71.5124 0.838867 91.8963 21.222 91.8965 46.3662V46.3682C91.8965 71.5126 71.5126 91.8965 46.3682 91.8965H46.3662C21.222 91.8963 0.838867 71.5124 0.838867 46.3682V46.3662C0.83904 21.2221 21.2221 0.83904 46.3662 0.838867Z" fill="black" stroke="black" stroke-width="1.67719"/>
<path fill-rule="evenodd" clip-rule="evenodd" d="M38.9288 8.21387C21.031 11.6612 7.51177 27.4073 7.51172 46.3113C7.51172 65.2154 21.031 80.9622 38.9288 84.4098V80.7732C23.0123 77.3803 11.0742 63.2398 11.0742 46.3113C11.0743 29.3829 23.0123 15.2424 38.9288 11.8495V8.21387ZM53.7591 11.8638V8.22676C71.6239 11.7003 85.1103 27.4308 85.1104 46.3113C85.1104 65.1919 71.6239 80.9231 53.7591 84.3969V80.7589C69.6422 77.3408 81.5469 63.2162 81.5469 46.3113C81.5468 29.4065 69.6422 15.2819 53.7591 11.8638Z" fill="white"/>
<path d="M51.8388 45.0146C54.7991 45.5788 57.0953 46.6669 58.7273 48.2789C60.3593 49.8506 61.1753 51.8656 61.1753 54.3239V58.1926C61.1753 61.1345 60.1126 63.5122 57.9872 65.3257C55.8618 67.0989 53.0723 67.9855 49.6185 67.9855H48.4229V74.1514H44.324V67.9855H43.0715C40.7943 67.9855 38.7828 67.4818 37.0369 66.4743C35.291 65.4265 33.9247 63.9757 32.9379 62.1219C31.9891 60.2278 31.5146 58.0516 31.5146 55.5933H35.6136C35.6136 58.0919 36.2968 60.127 37.6631 61.6987C39.0674 63.2301 40.9081 63.9958 43.1854 63.9958H49.5046C51.7439 63.9958 53.5467 63.4719 54.913 62.4241C56.2793 61.336 56.9625 59.9255 56.9625 58.1926V54.3239C56.9625 52.9537 56.4501 51.785 55.4254 50.8178C54.4386 49.8506 53.0723 49.2259 51.3264 48.9438L41.0789 47.1303C38.1945 46.6064 35.9552 45.5183 34.3612 43.8661C32.7671 42.2138 31.9701 40.1383 31.9701 37.6397V34.3754C31.9701 31.4335 32.9948 29.0962 35.0443 27.3633C37.1318 25.5901 39.8834 24.7035 43.2992 24.7035H44.324V18.5376H48.4229V24.7035H49.7323C52.9584 24.7035 55.5582 25.7513 57.5318 27.8469C59.5054 29.9022 60.4922 32.6224 60.4922 36.0076H56.3932C56.3932 33.7911 55.7859 32.0179 54.5714 30.688C53.3569 29.3581 51.7439 28.6932 49.7323 28.6932H43.2992C41.1359 28.6932 39.409 29.2171 38.1186 30.2649C36.8281 31.2723 36.1829 32.6425 36.1829 34.3754V37.6397C36.1829 39.0502 36.6574 40.2391 37.6062 41.2063C38.593 42.1735 39.9403 42.8183 41.6482 43.1407L51.8388 45.0146Z" fill="white"/>
</svg>
